<?xml version="1.0" encoding="utf-8"?>
<!-- Generator: Adobe Illustrator 15.0.0, SVG Export Plug-In . SVG Version: 6.00 Build 0)  -->
<!DOCTYPE svg PUBLIC "-//W3C//DTD SVG 1.1//EN" "http://www.w3.org/Graphics/SVG/1.1/DTD/svg11.dtd">
<svg version="1.1" id="Capa_1" xmlns="http://www.w3.org/2000/svg" xmlns:xlink="http://www.w3.org/1999/xlink" x="0px" y="0px"
	 width="338px" height="94px" viewBox="0 0 338 94" enable-background="new 0 0 338 94" xml:space="preserve">
<path id="a" d="M0,48v20l16,16h80l16-16V16L96,0H20L0,20h92v44H20V52h40l20-20H16L0,48z"/>
<path id="n" d="M216,84h20V16L220,0h-80l-16,16v68h20V20h72V84L216,84z"/>
<path id="i" d="M248,0h20v84h-20V0z"/>
<path id="m" d="M300,20v64h-20V16l16-16h112l16,16v68h-20V20h-42v64h-20V20H300z"/>
<path id="e" d="M548,36V16L532,0h-80l-16,16v52l16,16h76l20-20h-92V20h72v12h-40l-20,20h64L548,36L548,36z"/>
<path id="j" d="M562,64l20,20h44l16-16V0h-20v64H562z"/>
<path id="s" d="M674,20h92L746,0h-76l-16,16v20l16,16h76v12h-92l20,20h76l16-16V48l-16-16h-76V20z"/>
<path fill="none" stroke="#FF0000" stroke-miterlimit="10" d="M148,292v12"/>
<path d="M55,33l1-1h80l-1,1H55z"/>
<path d="M28,28h1L1,0H0L28,28z"/>
<path d="M232,28L204,0h1l28,28H232z"/>
<path d="M169,92l28-28h2l-28,28H169z"/>
<path d="M435,92h-80l1-1h80L435,92z"/>
<path d="M497,28h1L470,0h-1L497,28z"/>
<path d="M476,65h80l-1-1h-80L476,65z"/>
<path d="M554,59l-1,1h-80l1-1H554z"/>
<path fill="none" stroke="#FF0000" stroke-miterlimit="10" d="M128,288v20"/>
<path fill="none" stroke="#FF0000" stroke-miterlimit="10" d="M148,240l-20,20"/>
<path fill="none" stroke="#FF0000" stroke-miterlimit="10" d="M128,308l16,16"/>
<path fill="none" stroke="#FF0000" stroke-miterlimit="10" d="M144,272l-16,16"/>
<path fill="none" stroke="#FF0000" stroke-miterlimit="10" d="M202.5,240H224"/>
<path fill="none" stroke="#FF0000" stroke-miterlimit="10" d="M148,240h54.5"/>
<path fill="none" stroke="#FF0000" stroke-miterlimit="10" d="M144,272h64"/>
<path fill="none" stroke="#FF0000" stroke-miterlimit="10" d="M148,292h40"/>
<path fill="none" stroke="#FF0000" stroke-miterlimit="10" d="M148,304h72"/>
<path fill="none" stroke="#FF0000" stroke-miterlimit="10" d="M144,324h80"/>
<path fill="none" stroke="#FF0000" stroke-miterlimit="10" d="M129,260h91"/>
<path fill="none" stroke="#FF0000" stroke-miterlimit="10" d="M208,272l-20,20"/>
<path fill="none" stroke="#FF0000" stroke-miterlimit="10" d="M220,260v44"/>
<path fill="none" stroke="#FF0000" stroke-miterlimit="10" d="M224,240l16,16"/>
<path fill="none" stroke="#FF0000" stroke-miterlimit="10" d="M240,308l-16,16"/>
<path fill="none" stroke="#FF0000" stroke-miterlimit="10" d="M240,256v52"/>
<path fill="none" stroke="#FF0000" stroke-miterlimit="10" d="M252,256v68"/>
<path fill="none" stroke="#FF0000" stroke-miterlimit="10" d="M268,240l-16,16"/>
<path fill="none" stroke="#FF0000" stroke-miterlimit="10" d="M252,324h20"/>
<path fill="none" stroke="#FF0000" stroke-miterlimit="10" d="M272,260v64"/>
<path fill="none" stroke="#FF0000" stroke-miterlimit="10" d="M268,240h80"/>
<path fill="none" stroke="#FF0000" stroke-miterlimit="10" d="M272,260h72"/>
<path fill="none" stroke="#FF0000" stroke-miterlimit="10" d="M344,260v64"/>
<path fill="none" stroke="#FF0000" stroke-miterlimit="10" d="M348,240l16,16"/>
<path fill="none" stroke="#FF0000" stroke-miterlimit="10" d="M344,324h20"/>
<path fill="none" stroke="#FF0000" stroke-miterlimit="10" d="M364,256v68"/>
<path fill="none" stroke="#FF0000" stroke-miterlimit="10" d="M376,240v84"/>
<path fill="none" stroke="#FF0000" stroke-miterlimit="10" d="M376,324h20"/>
<path fill="none" stroke="#FF0000" stroke-miterlimit="10" d="M376,240h20"/>
<path fill="none" stroke="#FF0000" stroke-miterlimit="10" d="M396,240v84"/>
<path fill="none" stroke="#FF0000" stroke-miterlimit="10" d="M408,256v68"/>
<path fill="none" stroke="#FF0000" stroke-miterlimit="10" d="M424,240l-16,16"/>
<path fill="none" stroke="#FF0000" stroke-miterlimit="10" d="M408,324h20"/>
<path fill="none" stroke="#FF0000" stroke-miterlimit="10" d="M428,261v62"/>
<path fill="none" stroke="#FF0000" stroke-miterlimit="10" d="M424,240h112"/>
<path fill="none" stroke="#FF0000" stroke-miterlimit="10" d="M428,260h42"/>
<path fill="none" stroke="#FF0000" stroke-miterlimit="10" d="M470,261v62"/>
<path fill="none" stroke="#FF0000" stroke-miterlimit="10" d="M470,324h20"/>
<path fill="none" stroke="#FF0000" stroke-miterlimit="10" d="M490,261v62"/>
<path fill="none" stroke="#FF0000" stroke-miterlimit="10" d="M490,260h42"/>
<path fill="none" stroke="#FF0000" stroke-miterlimit="10" d="M532,261v62"/>
<path fill="none" stroke="#FF0000" stroke-miterlimit="10" d="M536,240l16,16"/>
<path fill="none" stroke="#FF0000" stroke-miterlimit="10" d="M532,324h20"/>
<path fill="none" stroke="#FF0000" stroke-miterlimit="10" d="M552,256v68"/>
<path fill="none" stroke="#FF0000" stroke-miterlimit="10" d="M564,256v52"/>
<path fill="none" stroke="#FF0000" stroke-miterlimit="10" d="M564,308l16,16"/>
<path fill="none" stroke="#FF0000" stroke-miterlimit="10" d="M580,240l-16,16"/>
<path fill="none" stroke="#FF0000" stroke-miterlimit="10" d="M584,260v44"/>
<path fill="none" stroke="#FF0000" stroke-miterlimit="10" d="M616,272l-20,20"/>
<path fill="none" stroke="#FF0000" stroke-miterlimit="10" d="M580,240h80"/>
<path fill="none" stroke="#FF0000" stroke-miterlimit="10" d="M584,260h72"/>
<path fill="none" stroke="#FF0000" stroke-miterlimit="10" d="M580,324h76"/>
<path fill="none" stroke="#FF0000" stroke-miterlimit="10" d="M596,292h64"/>
<path fill="none" stroke="#FF0000" stroke-miterlimit="10" d="M616,272h40"/>
<path fill="none" stroke="#FF0000" stroke-miterlimit="10" d="M656,260v12"/>
<path fill="none" stroke="#FF0000" stroke-miterlimit="10" d="M660,240l16,16"/>
<path fill="none" stroke="#FF0000" stroke-miterlimit="10" d="M676,304l-20,20"/>
<path fill="none" stroke="#FF0000" stroke-miterlimit="10" d="M676,276l-16,16"/>
<path fill="none" stroke="#FF0000" stroke-miterlimit="10" d="M584,304h92"/>
<path fill="none" stroke="#FF0000" stroke-miterlimit="10" d="M676,256v20"/>
<path fill="none" stroke="#FF0000" stroke-miterlimit="10" d="M690,304l20,20"/>
<path fill="none" stroke="#FF0000" stroke-miterlimit="10" d="M690,304h60"/>
<path fill="none" stroke="#FF0000" stroke-miterlimit="10" d="M710,324h44"/>
<path fill="none" stroke="#FF0000" stroke-miterlimit="10" d="M750,240v64"/>
<path fill="none" stroke="#FF0000" stroke-miterlimit="10" d="M770,308l-16,16"/>
<path fill="none" stroke="#FF0000" stroke-miterlimit="10" d="M750,240h20"/>
<path fill="none" stroke="#FF0000" stroke-miterlimit="10" d="M770,240v68"/>
<path fill="none" stroke="#FF0000" stroke-miterlimit="10" d="M782,256v20"/>
<path fill="none" stroke="#FF0000" stroke-miterlimit="10" d="M782,276l16,16"/>
<path fill="none" stroke="#FF0000" stroke-miterlimit="10" d="M782,304l20,20"/>
<path fill="none" stroke="#FF0000" stroke-miterlimit="10" d="M798,240l-16,16"/>
<path fill="none" stroke="#FF0000" stroke-miterlimit="10" d="M802,260v12"/>
<path fill="none" stroke="#FF0000" stroke-miterlimit="10" d="M798,240h76"/>
<path fill="none" stroke="#FF0000" stroke-miterlimit="10" d="M802,272h76"/>
<path fill="none" stroke="#FF0000" stroke-miterlimit="10" d="M802,324h76"/>
<path fill="none" stroke="#FF0000" stroke-miterlimit="10" d="M798,292h76"/>
<path fill="none" stroke="#FF0000" stroke-miterlimit="10" d="M782,304h92"/>
<path fill="none" stroke="#FF0000" stroke-miterlimit="10" d="M874,292v12"/>
<path fill="none" stroke="#FF0000" stroke-miterlimit="10" d="M878,272l16,16"/>
<path fill="none" stroke="#FF0000" stroke-miterlimit="10" d="M874,240l20,20"/>
<path fill="none" stroke="#FF0000" stroke-miterlimit="10" d="M894,308l-16,16"/>
<path fill="none" stroke="#FF0000" stroke-miterlimit="10" d="M802,260h92"/>
<path fill="none" stroke="#FF0000" stroke-miterlimit="10" d="M894,288v20"/>
</svg>
