<?xml version="1.0" encoding="utf-8"?>
<!-- Generator: Adobe Illustrator 15.0.0, SVG Export Plug-In  -->
<!DOCTYPE svg PUBLIC "-//W3C//DTD SVG 1.1//EN" "http://www.w3.org/Graphics/SVG/1.1/DTD/svg11.dtd" [
	<!ENTITY ns_flows "http://ns.adobe.com/Flows/1.0/">
]>
<svg version="1.1"
	 xmlns="http://www.w3.org/2000/svg" xmlns:xlink="http://www.w3.org/1999/xlink" xmlns:a="http://ns.adobe.com/AdobeSVGViewerExtensions/3.0/"
	 x="0px" y="0px" width="338px" height="94px" viewBox="0 -1.289 338 94" enable-background="new 0 -1.289 338 94"
	 xml:space="preserve">
<defs>
</defs>
<polygon stroke="#000000" stroke-width="2" stroke-miterlimit="10" points="182.25,40.3 143.83,40.3 143.83,2.392 "/>
<polygon fill="#EA0000" stroke="#EA0000" stroke-width="2" stroke-miterlimit="10" points="155.25,6.3 192.83,6.3 192.83,44.392 "/>
<path d="M51.545,59.024c5.723,0,7.833,3.578,7.833,8.193c0,1.947-0.704,3.984-1.054,4.709H43.309
	c-0.553,4.707,2.36,6.701,6.077,6.701c1.757,0,3.665-0.861,5.02-1.768l2.01,3.125c-2.01,1.268-4.921,2.354-8.436,2.354
	c-5.875,0-9.892-3.439-9.892-9.416C38.087,64.638,45.065,59.024,51.545,59.024z M54.657,68.849c0.153-0.588,0.251-1.223,0.251-1.947
	c0-2.172-1.005-4.119-4.015-4.119c-2.964,0-5.927,2.264-7.132,6.066H54.657z"/>
<path d="M66.96,59.567h4.367l-0.25,3.125h0.2c2.612-1.994,5.373-3.668,8.486-3.668c4.118,0,5.825,2.037,5.825,5.613
	c0,1.043-0.101,1.947-0.402,3.125l-3.113,14.033H76.7l3.014-13.4c0.201-1.041,0.4-1.676,0.4-2.354c0-1.902-1.003-2.852-3.111-2.852
	c-1.708,0-3.615,1.039-6.227,3.439L67.46,81.796h-5.424L66.96,59.567z"/>
<path d="M103.112,59.024c5.725,0,7.833,3.578,7.833,8.193c0,1.947-0.702,3.984-1.053,4.709H94.876
	c-0.552,4.707,2.36,6.701,6.077,6.701c1.757,0,3.664-0.861,5.021-1.768l2.007,3.125c-2.007,1.268-4.919,2.354-8.435,2.354
	c-5.875,0-9.893-3.439-9.893-9.416C89.655,64.638,96.634,59.024,103.112,59.024z M106.225,68.849
	c0.15-0.588,0.252-1.223,0.252-1.947c0-2.172-1.004-4.119-4.019-4.119c-2.962,0-5.925,2.264-7.13,6.066H106.225z"/>
<path d="M118.526,59.567h4.369l-0.25,3.125h0.2c2.611-1.994,5.372-3.668,8.486-3.668c4.118,0,5.824,2.037,5.824,5.613
	c0,1.043-0.101,1.947-0.399,3.125l-3.115,14.033h-5.372l3.013-13.4c0.2-1.041,0.401-1.676,0.401-2.354
	c0-1.902-1.004-2.852-3.113-2.852c-1.707,0-3.615,1.039-6.228,3.439l-3.313,15.166h-5.425L118.526,59.567z"/>
<path d="M160.857,57.712l1.707-7.877h5.372l-7.13,31.961h-4.419l0.251-3.078h-0.15c-2.31,2.174-5.323,3.621-8.135,3.621
	c-4.319,0-7.029-2.898-7.029-8.104c0-8.51,6.427-15.211,13.254-15.211c2.412,0,4.37,1.178,5.425,2.941h0.15L160.857,57.712z
	 M157.041,74.599l2.008-8.873c-1.104-1.902-2.661-2.717-4.168-2.717c-4.167,0-7.983,4.844-7.983,10.547
	c0,3.262,1.406,4.801,3.666,4.801C152.67,78.356,154.98,77.269,157.041,74.599z"/>
<path d="M181.794,59.024c5.724,0,7.833,3.578,7.833,8.193c0,1.947-0.703,3.984-1.054,4.709H173.56
	c-0.553,4.707,2.359,6.701,6.076,6.701c1.757,0,3.665-0.861,5.021-1.768l2.009,3.125c-2.009,1.268-4.922,2.354-8.436,2.354
	c-5.875,0-9.893-3.439-9.893-9.416C168.337,64.638,175.317,59.024,181.794,59.024z M184.909,68.849
	c0.15-0.588,0.25-1.223,0.25-1.947c0-2.172-1.005-4.119-4.017-4.119c-2.963,0-5.925,2.264-7.131,6.066H184.909z"/>
<path d="M191.285,79.036l14.663-15.621h-10.043l0.853-3.848h16.824l-0.604,2.809l-14.712,15.572h11.599l-0.854,3.848h-18.328
	L191.285,79.036z"/>
<path d="M265.477,60.567c2.412,0,4.57,1.221,5.676,3.123h0.1l1.055-2.58h4.318l-4.92,22.227h-4.42l0.25-3.078h-0.15
	c-2.311,2.172-5.322,3.621-8.135,3.621c-4.318,0-7.029-2.896-7.029-8.102C252.221,67.267,258.648,60.567,265.477,60.567z
	 M267.938,76.14l2.008-8.873c-1.104-1.902-2.66-2.717-4.168-2.717c-4.166,0-7.982,4.844-7.982,10.549
	c0,3.26,1.406,4.799,3.666,4.799C263.57,79.897,265.93,78.812,267.938,76.14z"/>
<path d="M283.955,85.058c-1.055,4.393-3.363,7.605-8.285,7.605c-1.658,0-2.912-0.271-4.318-0.904l1.707-3.531
	c0.654,0.361,1.307,0.543,2.211,0.543c1.807,0,2.66-1.268,3.313-3.803l5.322-23.857h5.373L283.955,85.058z M284.811,54.636
	c0-1.721,1.605-3.17,3.613-3.17c1.607,0,3.113,0.906,3.113,2.535c0,1.811-1.656,3.17-3.615,3.17
	C286.314,57.171,284.811,56.265,284.811,54.636z"/>
<path d="M305.445,60.567c2.412,0,4.57,1.221,5.676,3.123h0.1l1.055-2.58h4.318l-4.92,22.227h-4.42l0.25-3.078h-0.15
	c-2.309,2.172-5.32,3.621-8.133,3.621c-4.318,0-7.031-2.896-7.031-8.102C292.189,67.267,298.619,60.567,305.445,60.567z
	 M307.906,76.14l2.01-8.873c-1.104-1.902-2.662-2.717-4.168-2.717c-4.168,0-7.984,4.844-7.984,10.549
	c0,3.26,1.406,4.799,3.666,4.799C303.537,79.897,305.898,78.812,307.906,76.14z"/>
<path d="M320.66,77.272c1.607,1.9,3.617,2.986,5.826,2.986c2.309,0,4.318-1.268,4.318-2.898c0-1.402-1.307-2.172-4.42-3.713
	c-3.264-1.627-5.271-3.484-5.271-6.154c0-4.029,4.066-6.926,8.988-6.926c3.213,0,5.824,1.355,7.732,3.168l-3.014,2.58
	c-1.254-1.133-2.762-2.082-4.719-2.082c-2.26,0-3.918,1.268-3.918,2.807c0,1.629,2.109,2.4,4.217,3.486
	c3.666,1.766,5.475,3.529,5.475,6.246c0,4.301-4.117,7.107-9.791,7.107c-3.113,0-6.779-1.719-8.637-4.254L320.66,77.272z"/>
<polygon points="19.406,72.3 23.253,72.3 35.666,59.495 23.437,82.3 28.892,82.3 46.097,49.3 40.441,49.3 22.938,66.089 
	19.718,49.3 15.621,49.3 0,81.871 5.117,81.868 16.522,57.498 "/>
<polygon points="243.67,47.3 238.197,47.3 220.027,82.3 245.438,82.3 247.814,77.854 228.252,77.796 "/>
</svg>
