<?xml version="1.0" encoding="utf-8"?>
<!-- Generator: Adobe Illustrator 15.0.0, SVG Export Plug-In  -->
<!DOCTYPE svg PUBLIC "-//W3C//DTD SVG 1.1 Tiny//EN" "http://www.w3.org/Graphics/SVG/1.1/DTD/svg11-tiny.dtd" [
	<!ENTITY ns_flows "http://ns.adobe.com/Flows/1.0/">
]>
<svg version="1.1" baseProfile="tiny"
	 xmlns="http://www.w3.org/2000/svg" xmlns:xlink="http://www.w3.org/1999/xlink" xmlns:a="http://ns.adobe.com/AdobeSVGViewerExtensions/3.0/"
	 x="0px" y="0px" width="338px" height="93px" viewBox="0 -0.678 338 93" xml:space="preserve">
<defs>
</defs>
<polygon stroke="#000000" stroke-width="2" stroke-miterlimit="10" points="182.25,40.414 144.25,40.414 144.25,2.414 "/>
<polygon fill="#EA0000" stroke="#EA0000" stroke-width="2" stroke-miterlimit="10" points="155.25,6.414 193.25,6.414 
	193.25,44.414 "/>
<path d="M51.545,59.047c5.723,0,7.833,3.577,7.833,8.193c0,1.947-0.704,3.984-1.054,4.709H43.309c-0.553,4.707,2.36,6.7,6.077,6.7
	c1.757,0,3.665-0.86,5.02-1.767l2.01,3.125c-2.01,1.268-4.921,2.354-8.436,2.354c-5.875,0-9.892-3.44-9.892-9.416
	C38.087,64.66,45.065,59.047,51.545,59.047z M54.657,68.87c0.153-0.588,0.251-1.222,0.251-1.947c0-2.172-1.005-4.119-4.015-4.119
	c-2.964,0-5.927,2.265-7.132,6.066H54.657z"/>
<path d="M66.96,59.59h4.367l-0.25,3.124h0.2c2.612-1.993,5.373-3.667,8.486-3.667c4.118,0,5.825,2.036,5.825,5.613
	c0,1.042-0.101,1.946-0.402,3.124l-3.113,14.034H76.7l3.014-13.4c0.201-1.042,0.4-1.676,0.4-2.354c0-1.901-1.003-2.852-3.111-2.852
	c-1.708,0-3.615,1.04-6.227,3.439L67.46,81.818h-5.424L66.96,59.59z"/>
<path d="M103.112,59.047c5.725,0,7.833,3.577,7.833,8.193c0,1.947-0.702,3.984-1.053,4.709H94.876c-0.552,4.707,2.36,6.7,6.077,6.7
	c1.757,0,3.664-0.86,5.021-1.767l2.007,3.125c-2.007,1.268-4.919,2.354-8.435,2.354c-5.875,0-9.893-3.44-9.893-9.416
	C89.655,64.66,96.634,59.047,103.112,59.047z M106.225,68.87c0.15-0.588,0.252-1.222,0.252-1.947c0-2.172-1.004-4.119-4.019-4.119
	c-2.962,0-5.925,2.265-7.13,6.066H106.225z"/>
<path d="M118.526,59.59h4.369l-0.25,3.124h0.2c2.611-1.993,5.372-3.667,8.486-3.667c4.118,0,5.824,2.036,5.824,5.613
	c0,1.042-0.101,1.946-0.399,3.124l-3.115,14.034h-5.372l3.013-13.4c0.2-1.042,0.401-1.676,0.401-2.354
	c0-1.901-1.004-2.852-3.113-2.852c-1.707,0-3.615,1.04-6.228,3.439l-3.313,15.167h-5.425L118.526,59.59z"/>
<path d="M160.857,57.733l1.707-7.876h5.372l-7.13,31.961h-4.419l0.251-3.078h-0.15c-2.31,2.173-5.323,3.621-8.135,3.621
	c-4.319,0-7.029-2.898-7.029-8.104c0-8.511,6.427-15.211,13.254-15.211c2.412,0,4.37,1.178,5.425,2.941h0.15L160.857,57.733z
	 M157.041,74.62l2.008-8.873c-1.104-1.902-2.661-2.717-4.168-2.717c-4.167,0-7.983,4.844-7.983,10.548c0,3.261,1.406,4.8,3.666,4.8
	C152.67,78.378,154.98,77.291,157.041,74.62z"/>
<path d="M181.794,59.047c5.724,0,7.833,3.577,7.833,8.193c0,1.947-0.703,3.984-1.054,4.709H173.56c-0.553,4.707,2.359,6.7,6.076,6.7
	c1.757,0,3.665-0.86,5.021-1.767l2.009,3.125c-2.009,1.268-4.922,2.354-8.436,2.354c-5.875,0-9.893-3.44-9.893-9.416
	C168.337,64.66,175.317,59.047,181.794,59.047z M184.909,68.87c0.15-0.588,0.25-1.222,0.25-1.947c0-2.172-1.005-4.119-4.017-4.119
	c-2.963,0-5.925,2.265-7.131,6.066H184.909z"/>
<path d="M191.285,79.058l14.663-15.62h-10.044l0.853-3.848h16.823l-0.603,2.808l-14.713,15.573h11.599l-0.854,3.848h-18.327
	L191.285,79.058z"/>
<path d="M265.477,60.589c2.411,0,4.57,1.221,5.675,3.123h0.1l1.056-2.58h4.318l-4.921,22.228h-4.42l0.251-3.078h-0.15
	c-2.311,2.172-5.322,3.621-8.135,3.621c-4.318,0-7.03-2.897-7.03-8.103C252.22,67.288,258.649,60.589,265.477,60.589z
	 M267.938,76.162l2.007-8.874c-1.103-1.901-2.66-2.716-4.167-2.716c-4.167,0-7.983,4.844-7.983,10.548c0,3.26,1.406,4.8,3.667,4.8
	C263.57,79.92,265.93,78.833,267.938,76.162z"/>
<path d="M283.956,85.08c-1.055,4.392-3.363,7.605-8.286,7.605c-1.657,0-2.911-0.271-4.317-0.905l1.707-3.531
	c0.654,0.362,1.307,0.544,2.21,0.544c1.807,0,2.661-1.268,3.313-3.804l5.322-23.857h5.373L283.956,85.08z M284.81,54.657
	c0-1.72,1.605-3.169,3.614-3.169c1.607,0,3.112,0.905,3.112,2.535c0,1.811-1.655,3.169-3.614,3.169
	C286.315,57.192,284.81,56.287,284.81,54.657z"/>
<path d="M305.446,60.589c2.412,0,4.57,1.221,5.676,3.123h0.1l1.054-2.58h4.318l-4.919,22.228h-4.42l0.25-3.078h-0.15
	c-2.31,2.172-5.321,3.621-8.134,3.621c-4.318,0-7.03-2.897-7.03-8.103C292.19,67.288,298.619,60.589,305.446,60.589z
	 M307.907,76.162l2.009-8.874c-1.104-1.901-2.661-2.716-4.167-2.716c-4.169,0-7.984,4.844-7.984,10.548c0,3.26,1.406,4.8,3.666,4.8
	C303.538,79.92,305.899,78.833,307.907,76.162z"/>
<path d="M320.66,77.295c1.607,1.9,3.617,2.986,5.827,2.986c2.309,0,4.317-1.268,4.317-2.898c0-1.402-1.307-2.172-4.42-3.713
	c-3.263-1.628-5.271-3.485-5.271-6.155c0-4.028,4.067-6.926,8.988-6.926c3.214,0,5.824,1.356,7.733,3.169l-3.014,2.58
	c-1.255-1.133-2.763-2.083-4.72-2.083c-2.26,0-3.917,1.268-3.917,2.808c0,1.629,2.109,2.399,4.217,3.486
	c3.666,1.765,5.474,3.529,5.474,6.246c0,4.301-4.117,7.107-9.791,7.107c-3.112,0-6.778-1.72-8.637-4.254L320.66,77.295z"/>
<polygon points="19.406,72.414 23.253,72.414 35.666,59.608 23.437,82.414 28.892,82.414 46.097,49.414 40.441,49.414 
	22.938,66.202 19.718,49.414 15.621,49.414 0,81.938 5.117,81.914 16.522,57.578 "/>
<polygon points="243.669,47.414 238.198,47.414 220.027,82.414 245.438,82.414 247.815,77.921 228.252,77.887 "/>
</svg>
