<?xml version="1.0" encoding="utf-8"?>
<!-- Generator: Adobe Illustrator 15.0.0, SVG Export Plug-In  -->
<!DOCTYPE svg PUBLIC "-//W3C//DTD SVG 1.1//EN" "http://www.w3.org/Graphics/SVG/1.1/DTD/svg11.dtd" [
	<!ENTITY ns_flows "http://ns.adobe.com/Flows/1.0/">
]>
<svg version="1.1"
	 xmlns="http://www.w3.org/2000/svg" xmlns:xlink="http://www.w3.org/1999/xlink" xmlns:a="http://ns.adobe.com/AdobeSVGViewerExtensions/3.0/"
	 x="0px" y="0px" width="401px" height="47px" viewBox="0.5 1.212 401 47" enable-background="new 0.5 1.212 401 47"
	 xml:space="preserve">
<defs>
</defs>
<polygon fill="#FFFFFF" stroke="#FFFFFF" stroke-miterlimit="10" points="39,39.919 0.5,39.919 0.5,1.212 "/>
<polygon fill="#FFFFFF" stroke="#FFFFFF" stroke-miterlimit="10" points="12,5.919 49.5,5.919 49.5,43.212 "/>
<path fill="#FFFFFF" stroke="#FFFFFF" stroke-miterlimit="10" d="M115.295,14.3c5.723,0,7.833,3.578,7.833,8.193
	c0,1.947-0.704,3.984-1.054,4.709h-15.015c-0.553,4.707,2.36,6.701,6.077,6.701c1.757,0,3.665-0.861,5.02-1.768l2.01,3.125
	c-2.01,1.268-4.921,2.354-8.436,2.354c-5.875,0-9.892-3.439-9.892-9.416C101.837,19.913,108.815,14.3,115.295,14.3z M118.406,24.124
	c0.153-0.588,0.251-1.223,0.251-1.947c0-2.172-1.005-4.119-4.015-4.119c-2.964,0-5.927,2.264-7.132,6.066H118.406z"/>
<path fill="#FFFFFF" stroke="#FFFFFF" stroke-miterlimit="10" d="M130.71,14.843h4.367l-0.25,3.125h0.2
	c2.612-1.994,5.373-3.668,8.486-3.668c4.118,0,5.825,2.037,5.825,5.613c0,1.043-0.101,1.947-0.402,3.125l-3.113,14.033h-5.374
	l3.014-13.4c0.201-1.041,0.4-1.676,0.4-2.354c0-1.902-1.003-2.852-3.111-2.852c-1.708,0-3.615,1.039-6.227,3.439l-3.315,15.166
	h-5.424L130.71,14.843z"/>
<path fill="#FFFFFF" stroke="#FFFFFF" stroke-miterlimit="10" d="M166.861,14.3c5.725,0,7.833,3.578,7.833,8.193
	c0,1.947-0.702,3.984-1.053,4.709h-15.016c-0.552,4.707,2.36,6.701,6.077,6.701c1.757,0,3.664-0.861,5.021-1.768l2.007,3.125
	c-2.007,1.268-4.919,2.354-8.435,2.354c-5.875,0-9.893-3.439-9.893-9.416C153.404,19.913,160.384,14.3,166.861,14.3z
	 M169.975,24.124c0.15-0.588,0.252-1.223,0.252-1.947c0-2.172-1.004-4.119-4.019-4.119c-2.962,0-5.925,2.264-7.13,6.066H169.975z"/>
<path fill="#FFFFFF" stroke="#FFFFFF" stroke-miterlimit="10" d="M182.275,14.843h4.369l-0.25,3.125h0.2
	c2.611-1.994,5.372-3.668,8.486-3.668c4.118,0,5.824,2.037,5.824,5.613c0,1.043-0.101,1.947-0.399,3.125l-3.115,14.033h-5.372
	l3.013-13.4c0.2-1.041,0.401-1.676,0.401-2.354c0-1.902-1.004-2.852-3.113-2.852c-1.707,0-3.615,1.039-6.228,3.439l-3.313,15.166
	h-5.425L182.275,14.843z"/>
<path fill="#FFFFFF" stroke="#FFFFFF" stroke-miterlimit="10" d="M224.606,12.987l1.707-7.877h5.372l-7.13,31.961h-4.419
	l0.251-3.078h-0.15c-2.31,2.174-5.323,3.621-8.135,3.621c-4.319,0-7.029-2.898-7.029-8.104c0-8.51,6.427-15.211,13.254-15.211
	c2.412,0,4.37,1.178,5.425,2.941h0.15L224.606,12.987z M220.79,29.874l2.008-8.873c-1.104-1.902-2.661-2.717-4.168-2.717
	c-4.167,0-7.983,4.844-7.983,10.547c0,3.262,1.406,4.801,3.666,4.801C216.42,33.632,218.729,32.544,220.79,29.874z"/>
<path fill="#FFFFFF" stroke="#FFFFFF" stroke-miterlimit="10" d="M245.544,14.3c5.724,0,7.833,3.578,7.833,8.193
	c0,1.947-0.703,3.984-1.054,4.709H237.31c-0.553,4.707,2.359,6.701,6.076,6.701c1.757,0,3.665-0.861,5.021-1.768l2.009,3.125
	c-2.009,1.268-4.922,2.354-8.436,2.354c-5.875,0-9.893-3.439-9.893-9.416C232.087,19.913,239.066,14.3,245.544,14.3z
	 M248.658,24.124c0.15-0.588,0.25-1.223,0.25-1.947c0-2.172-1.005-4.119-4.017-4.119c-2.963,0-5.925,2.264-7.131,6.066H248.658z"/>
<path fill="#FFFFFF" stroke="#FFFFFF" stroke-miterlimit="10" d="M255.034,34.312l14.663-15.621h-10.044l0.853-3.848h16.823
	l-0.603,2.809l-14.713,15.572h11.599l-0.854,3.848h-18.327L255.034,34.312z"/>
<path fill="#FFFFFF" stroke="#FFFFFF" stroke-miterlimit="10" d="M329.227,15.843c2.411,0,4.57,1.221,5.675,3.123h0.1l1.056-2.58
	h4.318l-4.921,22.227h-4.42l0.251-3.078h-0.15c-2.311,2.172-5.322,3.621-8.135,3.621c-4.318,0-7.03-2.896-7.03-8.102
	C315.97,22.542,322.398,15.843,329.227,15.843z M331.688,31.415l2.007-8.873c-1.103-1.902-2.66-2.717-4.167-2.717
	c-4.167,0-7.983,4.844-7.983,10.549c0,3.26,1.406,4.799,3.667,4.799C327.319,35.173,329.68,34.087,331.688,31.415z"/>
<path fill="#FFFFFF" stroke="#FFFFFF" stroke-miterlimit="10" d="M347.705,40.333c-1.055,4.393-3.363,7.605-8.286,7.605
	c-1.657,0-2.911-0.271-4.317-0.904l1.707-3.531c0.654,0.361,1.307,0.543,2.21,0.543c1.807,0,2.661-1.268,3.313-3.803l5.322-23.857
	h5.373L347.705,40.333z M348.56,9.911c0-1.721,1.605-3.17,3.614-3.17c1.607,0,3.112,0.906,3.112,2.535
	c0,1.811-1.655,3.17-3.614,3.17C350.064,12.446,348.56,11.54,348.56,9.911z"/>
<path fill="#FFFFFF" stroke="#FFFFFF" stroke-miterlimit="10" d="M369.195,15.843c2.412,0,4.57,1.221,5.676,3.123h0.1l1.054-2.58
	h4.318l-4.919,22.227h-4.42l0.25-3.078h-0.15c-2.31,2.172-5.321,3.621-8.134,3.621c-4.318,0-7.03-2.896-7.03-8.102
	C355.939,22.542,362.368,15.843,369.195,15.843z M371.656,31.415l2.009-8.873c-1.104-1.902-2.661-2.717-4.167-2.717
	c-4.169,0-7.984,4.844-7.984,10.549c0,3.26,1.406,4.799,3.666,4.799C367.287,35.173,369.648,34.087,371.656,31.415z"/>
<path fill="#FFFFFF" stroke="#FFFFFF" stroke-miterlimit="10" d="M384.409,32.548c1.607,1.9,3.617,2.986,5.827,2.986
	c2.309,0,4.317-1.268,4.317-2.898c0-1.402-1.307-2.172-4.42-3.713c-3.263-1.627-5.271-3.484-5.271-6.154
	c0-4.029,4.067-6.926,8.988-6.926c3.214,0,5.824,1.355,7.733,3.168l-3.014,2.58c-1.255-1.133-2.763-2.082-4.72-2.082
	c-2.26,0-3.917,1.268-3.917,2.807c0,1.629,2.109,2.4,4.217,3.486c3.666,1.766,5.474,3.529,5.474,6.246
	c0,4.301-4.117,7.107-9.791,7.107c-3.112,0-6.778-1.719-8.637-4.254L384.409,32.548z"/>
<polygon fill="#FFFFFF" stroke="#FFFFFF" stroke-miterlimit="10" points="83.155,28.919 87.003,28.919 99.415,16.112 87.186,38.919 
	92.642,38.919 109.847,5.919 104.19,5.919 86.688,22.706 83.467,5.919 79.371,5.919 63.75,37.816 68.866,37.479 80.271,13.613 "/>
<polygon fill="#FFFFFF" stroke="#FFFFFF" stroke-miterlimit="10" points="307.419,3.919 301.947,3.919 283.776,38.919 
	309.188,38.919 311.564,33.799 292.002,34.079 "/>
</svg>
