<?xml version="1.0" encoding="utf-8"?>
<!-- Generator: Adobe Illustrator 15.0.0, SVG Export Plug-In  -->
<!DOCTYPE svg PUBLIC "-//W3C//DTD SVG 1.1//EN" "http://www.w3.org/Graphics/SVG/1.1/DTD/svg11.dtd" [
	<!ENTITY ns_flows "http://ns.adobe.com/Flows/1.0/">
]>
<svg version="1.1"
	 xmlns="http://www.w3.org/2000/svg" xmlns:xlink="http://www.w3.org/1999/xlink" xmlns:a="http://ns.adobe.com/AdobeSVGViewerExtensions/3.0/"
	 x="0px" y="0px" width="800px" height="600px" viewBox="-69 -188 800 600" enable-background="new -69 -188 800 600"
	 xml:space="preserve">
<defs>
</defs>
<rect x="0.5" y="0.5" fill="none" stroke="#000000" stroke-miterlimit="10" width="29" height="29"/>
<path fill="none" stroke="#000000" stroke-miterlimit="10" d="M9.006,10.998c3.041-0.285,3.041,0.452,5.626-0.602
	c0.747-0.305,3.568,1.314,4.048,1.902c1.67,2.046,4.917-0.315,6.329,2.136c1.681,2.917,0.069,4.667-1.119,6.6
	c-1.152,1.875-6.754,0.113-7.805-0.576c-1.578-1.036-4.542,0.645-6.269,0.284c-1.781-0.372-0.557-1.038-2.296-2.123
	C4.541,16.76,6.523,10.066,9.006,10.998z"/>
<rect x="29.5" y="0.5" fill="none" stroke="#000000" stroke-miterlimit="10" width="29" height="29"/>
<rect x="40.5" y="18.5" fill="none" stroke="#000000" stroke-miterlimit="10" width="5" height="5"/>
<rect x="58.5" y="0.5" fill="none" stroke="#000000" stroke-miterlimit="10" width="29" height="29"/>
<rect x="87.5" y="0.5" fill="none" stroke="#000000" stroke-miterlimit="10" width="28" height="29"/>
<rect x="115.5" y="0.5" fill="none" stroke="#000000" stroke-miterlimit="10" width="29" height="29"/>
<rect x="144.5" y="0.5" fill="none" stroke="#000000" stroke-miterlimit="10" width="29" height="29"/>
<rect x="173.5" y="0.5" fill="none" stroke="#000000" stroke-miterlimit="10" width="29" height="29"/>
<rect x="68.5" y="16.5" fill="none" stroke="#000000" stroke-miterlimit="10" width="8" height="7"/>
<rect x="96.5" y="14.5" fill="none" stroke="#000000" stroke-miterlimit="10" width="10" height="9"/>
<rect x="123.5" y="12.5" fill="none" stroke="#000000" stroke-miterlimit="10" width="12" height="11"/>
<rect x="152.5" y="10.5" fill="none" stroke="#000000" stroke-miterlimit="10" width="13" height="13"/>
<rect x="179.5" y="5.5" fill="none" stroke="#000000" stroke-miterlimit="10" width="18" height="18"/>
<rect x="19.5" y="39.5" fill="#FFFFFF" stroke="#000000" stroke-miterlimit="10" width="20" height="11"/>
<rect x="76.5" y="42.5" fill="#FFFFFF" stroke="#000000" stroke-miterlimit="10" width="22" height="3"/>
<rect x="64.5" y="47.5" fill="#FFFFFF" stroke="#000000" stroke-miterlimit="10" width="22" height="3"/>
<rect x="88.5" y="47.5" fill="#FFFFFF" stroke="#000000" stroke-miterlimit="10" width="22" height="3"/>
<rect x="0.5" y="29.5" fill="none" stroke="#000000" stroke-miterlimit="10" width="58" height="29"/>
<rect x="58.5" y="29.5" fill="none" stroke="#000000" stroke-miterlimit="10" width="58" height="29"/>
</svg>
