<?xml version="1.0" encoding="utf-8"?>
<!-- Generator: Adobe Illustrator 15.0.0, SVG Export Plug-In  -->
<!DOCTYPE svg PUBLIC "-//W3C//DTD SVG 1.1//EN" "http://www.w3.org/Graphics/SVG/1.1/DTD/svg11.dtd" [
	<!ENTITY ns_flows "http://ns.adobe.com/Flows/1.0/">
]>
<svg version="1.1"
	 xmlns="http://www.w3.org/2000/svg" xmlns:xlink="http://www.w3.org/1999/xlink" xmlns:a="http://ns.adobe.com/AdobeSVGViewerExtensions/3.0/"
	 x="0px" y="0px" width="30px" height="29px" viewBox="3 0 30 29" enable-background="new 3 0 30 29" xml:space="preserve">
<defs>
</defs>
<path display="none" d="M23.647,22.372c-2.171,0-5.053-0.982-5.836-1.496c-0.643-0.422-1.963-0.207-3.228,0.076
	c-1.014,0.227-2.094,0.44-2.869,0.279c-1.117-0.233-1.355-0.646-1.55-1.162c-0.112-0.295-0.228-0.602-0.909-1.026
	c-1.805-1.126-2.029-3.668-1.451-5.688c0.601-2.096,1.938-3.27,3.261-2.865c0.946-0.084,1.805-0.063,2.431-0.028
	c0.867,0.047,1.399,0.102,2.947-0.529c0.122-0.05,0.263-0.075,0.42-0.075c1.15,0,3.7,1.507,4.203,2.123
	c0.507,0.622,1.192,0.746,2.133,0.746c0.19,0,0.381-0.005,0.572-0.01c1.371-0.034,2.797-0.05,3.67,1.466
	c1.635,2.837,0.395,4.752-0.7,6.442c-0.144,0.222-0.288,0.444-0.426,0.669C25.878,22.01,24.98,22.372,23.647,22.372z M16.735,19.616
	c0.659,0,1.19,0.139,1.625,0.424c0.603,0.395,3.294,1.332,5.287,1.332c0.661,0,1.513-0.104,1.817-0.599
	c0.142-0.232,0.291-0.461,0.438-0.689c1.075-1.659,2.003-3.092,0.673-5.399c-0.47-0.815-1.167-0.975-2.211-0.975
	c-0.188,0-0.377,0.005-0.567,0.01c-1.243,0.03-2.553,0.062-3.504-1.104c-0.343-0.42-2.622-1.756-3.429-1.756
	c-1.763,0.696-2.404,0.659-3.423,0.602c-0.609-0.034-1.449-0.054-2.388,0.035l-0.115,0.011l-0.108-0.041
	c-0.787-0.292-1.634,0.663-2.064,2.164c-0.459,1.605-0.337,3.719,1.019,4.564c0.967,0.604,1.176,1.155,1.314,1.521
	c0.109,0.29,0.15,0.397,0.819,0.538c0.578,0.12,1.501-0.065,2.447-0.277C15.159,19.799,15.978,19.616,16.735,19.616z"/>
<path display="none" d="M62,30H32V0h30V30z M33,29h28V1H33V29z"/>
<path d="M21,24h-6v-6h6V24z M16,23h4v-4h-4V23z"/>
<path display="none" d="M22,24h-9v-8h9V24z M14,23h7v-6h-7V23z"/>
<path display="none" d="M23,24H12V14h11V24z M13,23h9v-8h-9V23z"/>
<path display="none" d="M24,24H11V12h13V24z M12,23h11V13H12V23z"/>
<path display="none" d="M24,24H10V10h14V24z M11,23h12V11H11V23z"/>
<path display="none" d="M27,24H8V5h19V24z M9,23h17V6H9V23z"/>
<rect x="7" y="13" display="none" fill="#FFFFFF" width="20" height="11"/>
<path display="none" d="M28,24H7V12h21V24z M8,23h19V13H8V23z"/>
<rect x="21" y="15" display="none" fill="#FFFFFF" width="22" height="3"/>
<path display="none" d="M44,18H21v-4h23V18z M22,17h21v-2H22V17z"/>
<rect x="9" y="20" display="none" fill="#FFFFFF" width="22" height="3"/>
<path display="none" d="M32,23H9v-4h23V23z M10,22h21v-2H10V22z"/>
<rect x="0.5" y="14.5" display="none" fill="none" stroke="#000000" stroke-miterlimit="10" width="29" height="29"/>
<path display="none" fill="none" stroke="#000000" stroke-miterlimit="10" d="M8.006,24.998c3.041-0.285,3.041,0.452,5.626-0.602
	c0.747-0.305,3.568,1.314,4.048,1.902c1.67,2.046,4.917-0.315,6.329,2.136c1.681,2.917,0.069,4.667-1.119,6.6
	c-1.152,1.875-6.754,0.113-7.805-0.576c-1.578-1.036-4.542,0.645-6.269,0.284c-1.781-0.372-0.557-1.038-2.296-2.123
	C3.541,30.76,5.523,24.066,8.006,24.998z"/>
<rect x="29.5" y="14.5" display="none" fill="none" stroke="#000000" stroke-miterlimit="10" width="29" height="29"/>
</svg>
